<svg xmlns="http://www.w3.org/2000/svg" viewBox="0 0 64 64">
  <defs>
    <linearGradient id="bg" x1="0" y1="0" x2="1" y2="1">
      <stop offset="0" stop-color="#fff8f3"/>
      <stop offset="1" stop-color="#fde1e8"/>
    </linearGradient>
    <linearGradient id="pink" x1="0" y1="0" x2="1" y2="1">
      <stop offset="0" stop-color="#f3a9be"/>
      <stop offset="1" stop-color="#c96f92"/>
    </linearGradient>
  </defs>
  <rect x="2" y="2" width="60" height="60" rx="16" fill="url(#bg)" stroke="#efb6c7" stroke-width="2"/>
  <path d="M16 34V26c0-10 7-16 16-16s16 6 16 16v8" fill="#fff7f0" stroke="#d889a4" stroke-width="2"/>
  <path d="M23 25c0-5 4-9 9-9s9 4 9 9v9H23z" fill="#d889a4"/>
  <path d="M30 14a4 4 0 0 1 4 4c0 2.2-1.8 4-4 4 1.3-1.1 2-2.5 2-4s-.7-2.9-2-4z" fill="#fff8f3"/>
  <circle cx="49" cy="13" r="2" fill="#eaa0b7"/>
  <path d="M18 37l14 6 14-6v10l-14 7-14-7z" fill="#fffdf8" stroke="#d889a4" stroke-width="1.8"/>
  <path d="M32 43v11" stroke="#d889a4" stroke-width="1.5"/>
  <path d="M18 38l-4-3M46 38l4-3" stroke="#b96c88" stroke-width="2" stroke-linecap="round"/>
  <path d="M13 35c-2-4 1-7 4-5 2-3 6-1 5 3-1 3-5 5-9 2z" fill="#f3a9be" stroke="#c97b95" stroke-width="1"/>
  <path d="M12 39c2-3 5-4 8-4M15 40c-1-3-1-5 0-7" stroke="#78a276" stroke-width="1.4" fill="none" stroke-linecap="round"/>
  <path d="M52 17l1 2 2 1-2 1-1 2-1-2-2-1 2-1z" fill="#e8a0b5"/>
</svg>
